# xmcd
# 
# Track frame offsets:
#     150
#     15090
#     28887
#     49833
#     71611
#     87228
#     109801
#     133937
#     151471
#     168645
#     184672
#     205628
#     227444
#     248777
#     266633
#     284258
#     304904
#     314078
#     331896
# 
# Disc length: 4651
# 
# Revision: 1
# Processed by: cddbd v1.5.2PL0 Copyright (c) Steve Scherf et al.
# Submitted via: fre:ac v1.0.31
# 
DISCID=0c122913
DTITLE=Mhairi McFarlane - Irgendwie hatte ich das mir anders vorgestellt CD1
DYEAR=0
DGENRE=Audiobook
TTITLE0=1-01
TTITLE1=1-02
TTITLE2=1-03
TTITLE3=1-04
TTITLE4=1-05
TTITLE5=1-06
TTITLE6=1-07
TTITLE7=1-08
TTITLE8=1-09
TTITLE9=1-10
TTITLE10=1-11
TTITLE11=1-12
TTITLE12=1-13
TTITLE13=1-14
TTITLE14=1-15
TTITLE15=1-16
TTITLE16=1-17
TTITLE17=1-18
TTITLE18=1-19
EXTD=
EXTT0=
EXTT1=
EXTT2=
EXTT3=
EXTT4=
EXTT5=
EXTT6=
EXTT7=
EXTT8=
EXTT9=
EXTT10=
EXTT11=
EXTT12=
EXTT13=
EXTT14=
EXTT15=
EXTT16=
EXTT17=
EXTT18=
PLAYORDER=
